# xmcd
#
# Track frame offsets:
#	150
#	12097
#	21565
#	34167
#	47297
#	59877
#	69900
#	81752
#	94547
#	107072
#	121995
#	133595
#	144442
#	156325
#	169410
#	183427
#	198502
#	208592
#	220907
#	233787
#
# Disc length: 3277 seconds
#
# Revision: 2
# Processed by: cddbd v1.5.1PL2 Copyright (c) Steve Scherf et al.
# Submitted via: audiograbber 1.83.01
#
DISCID=1d0ccb14
DTITLE=Tex Williams - Artistry In Western Swing
DYEAR=1900
DGENRE=Western Swing
TTITLE0=Miss Molly
TTITLE1=Cowpuncher's Waltz
TTITLE2=Birmingham Bounce
TTITLE3=Artistry In Western Swing
TTITLE4=Milkman Polka
TTITLE5=Great Big Needle
TTITLE6=Cowbell Polka
TTITLE7=Pretty Red Light
TTITLE8=Banjo Polka
TTITLE9=A and E Rag
TTITLE10=Big Hat Polka
TTITLE11=Tambouritza Boogie
TTITLE12=Capitol Polka
TTITLE13=Life Gits Tee-Jus
TTITLE14=Roundup Polka
TTITLE15=Rakes Of Mallow
TTITLE16=Sugar Coated Love
TTITLE17=Miracle Waltz
TTITLE18=Yodeling Polka
TTITLE19=Sweet Little Boogalie
EXTD=
EXTT0=
EXTT1=
EXTT2=
EXTT3=
EXTT4=
EXTT5=
EXTT6=
EXTT7=
EXTT8=
EXTT9=
EXTT10=
EXTT11=
EXTT12=
EXTT13=
EXTT14=
EXTT15=
EXTT16=
EXTT17=
EXTT18=
EXTT19=
PLAYORDER=
